<svg width="12" height="16" viewBox="0 0 12 16" fill="none" xmlns="http://www.w3.org/2000/svg">
<g clip-path="url(#clip0_0_355)">
<path d="M6.55069 2.01494C7.49595 0.75641 8.81009 0.750275 8.81009 0.750275C8.81009 0.750275 9.00557 1.93351 8.0665 3.07333C7.0638 4.29042 5.9241 4.09126 5.9241 4.09126C5.9241 4.09126 5.7101 3.13407 6.55069 2.01494V2.01494ZM6.04433 4.92011C6.53062 4.92011 7.43315 4.24487 8.60793 4.24487C10.6301 4.24487 11.4256 5.69837 11.4256 5.69837C11.4256 5.69837 9.86972 6.50194 9.86972 8.45176C9.86972 10.6513 11.8079 11.4094 11.8079 11.4094C11.8079 11.4094 10.4531 15.2616 8.62298 15.2616C7.78244 15.2616 7.12896 14.6894 6.24333 14.6894C5.34079 14.6894 4.44516 15.2829 3.86183 15.2829C2.19069 15.2829 0.0794678 11.6287 0.0794678 8.69135C0.0794678 5.80139 1.86648 4.28536 3.54262 4.28536C4.63227 4.28536 5.47784 4.92011 6.04433 4.92011V4.92011Z" fill="#999999"/>
</g>
<defs>
<clipPath id="clip0_0_355">
<rect width="11.7285" height="14.5332" fill="white" transform="translate(0.0794678 0.749023)"/>
</clipPath>
</defs>
</svg>
