<svg width="19" height="19" viewBox="0 0 19 19" fill="none" xmlns="http://www.w3.org/2000/svg">
<path d="M10.1831 0.154663C9.93925 0.154663 9.70541 0.253005 9.533 0.428056C9.36059 0.603106 9.26373 0.840526 9.26373 1.08808V8.55546C9.26373 8.80301 9.36059 9.04043 9.533 9.21548C9.70541 9.39054 9.93925 9.48888 10.1831 9.48888H17.5378C17.7816 9.48888 18.0154 9.39054 18.1878 9.21548C18.3603 9.04043 18.4571 8.80301 18.4571 8.55546C18.4571 6.32743 17.5854 4.19065 16.0337 2.6152C14.482 1.03974 12.3775 0.154663 10.1831 0.154663ZM11.1024 7.62203V2.08685C12.4779 2.2881 13.7523 2.93605 14.735 3.93379C15.7177 4.93153 16.3559 6.22544 16.5541 7.62203H11.1024Z" fill="white"/>
<path d="M17.3723 11.4117C17.2582 11.3703 17.1372 11.3522 17.0163 11.3584C16.8953 11.3647 16.7767 11.3951 16.6674 11.448C16.558 11.5009 16.46 11.5753 16.3791 11.6668C16.2981 11.7582 16.2357 11.8651 16.1956 11.9811C15.7813 13.1702 15.077 14.2334 14.1486 15.0714C13.2202 15.9095 12.0978 16.4951 10.8862 16.7737C9.67463 17.0523 8.41327 17.0147 7.21983 16.6645C6.0264 16.3143 4.93978 15.6628 4.06135 14.771C3.18292 13.8791 2.54132 12.7758 2.19639 11.5641C1.85146 10.3524 1.81446 9.07168 2.08882 7.84151C2.36319 6.61135 2.93999 5.47178 3.7654 4.52915C4.59082 3.58651 5.63795 2.87151 6.80912 2.45086C7.03953 2.36917 7.22854 2.19789 7.33457 1.9747C7.44061 1.75151 7.45497 1.49469 7.37451 1.26075C7.29405 1.02681 7.12535 0.8349 6.90553 0.727244C6.68571 0.619588 6.43277 0.605003 6.20235 0.686697C4.73789 1.21201 3.42837 2.10546 2.39603 3.28368C1.36369 4.4619 0.642185 5.88646 0.298846 7.42442C-0.0444928 8.96237 0.00153272 10.5636 0.432627 12.0786C0.863721 13.5936 1.66583 14.973 2.76409 16.0881C3.86235 17.2032 5.22095 18.0176 6.7131 18.4553C8.20525 18.893 9.78229 18.9397 11.297 18.5911C12.8118 18.2425 14.2149 17.5099 15.3753 16.4618C16.5357 15.4136 17.4157 14.0841 17.9331 12.5972C18.0126 12.3644 17.9983 12.1092 17.8932 11.8871C17.7882 11.6651 17.6009 11.4942 17.3723 11.4117Z" fill="white"/>
</svg>
