<svg width="16" height="16" viewBox="0 0 16 16" fill="none" xmlns="http://www.w3.org/2000/svg">
<g clip-path="url(#clip0_0_347)">
<path d="M15.1778 8.18967C15.1778 7.59425 15.1292 7.15975 15.0241 6.70917H8.18848V9.39659H12.2008C12.12 10.0644 11.6831 11.0702 10.7124 11.7461L10.6988 11.8361L12.8601 13.5014L13.0098 13.5163C14.385 12.253 15.1778 10.3943 15.1778 8.18967" fill="#4285F4"/>
<path d="M8.18854 15.2704C10.1543 15.2704 11.8045 14.6267 13.0099 13.5163L10.7124 11.7461C10.0977 12.1726 9.27251 12.4703 8.18854 12.4703C6.26326 12.4703 4.62919 11.207 4.04669 9.461L3.96131 9.46821L1.71396 11.1982L1.68457 11.2794C2.8818 13.645 5.34102 15.2704 8.18854 15.2704Z" fill="#34A853"/>
<path d="M4.04653 9.46099C3.89283 9.0104 3.80388 8.52759 3.80388 8.02875C3.80388 7.52985 3.89283 7.04709 4.03844 6.5965L4.03437 6.50054L1.75886 4.7428L1.68441 4.77802C1.19097 5.75968 0.907837 6.86204 0.907837 8.02875C0.907837 9.19545 1.19097 10.2978 1.68441 11.2794L4.04653 9.46099" fill="#FBBC05"/>
<path d="M8.18854 3.58719C9.55565 3.58719 10.4778 4.17457 11.0037 4.66542L13.0584 2.66994C11.7965 1.50323 10.1543 0.787109 8.18854 0.787109C5.34102 0.787109 2.8818 2.41244 1.68457 4.77803L4.0386 6.59651C4.62919 4.85047 6.26326 3.58719 8.18854 3.58719" fill="#EB4335"/>
</g>
<defs>
<clipPath id="clip0_0_347">
<rect width="14.2781" height="14.5332" fill="white" transform="translate(0.907227 0.787109)"/>
</clipPath>
</defs>
</svg>
