<svg width="21" height="21" viewBox="0 0 21 21" fill="none" xmlns="http://www.w3.org/2000/svg">
<path d="M7.50641 17.5528H4.74855C3.77332 17.5528 2.83802 17.1594 2.14842 16.4592C1.45882 15.7591 1.07141 14.8095 1.07141 13.8193V5.41896C1.07141 4.42878 1.45882 3.47916 2.14842 2.779C2.83802 2.07883 3.77332 1.68549 4.74855 1.68549H14.8607C15.8359 1.68549 16.7712 2.07883 17.4608 2.779C18.1504 3.47916 18.5378 4.42878 18.5378 5.41896V8.21907" stroke="white" stroke-width="1.5" stroke-linecap="round" stroke-linejoin="round"/>
<path d="M6.5871 0.752106V2.61884" stroke="white" stroke-width="1.5" stroke-linecap="round" stroke-linejoin="round"/>
<path d="M13.0221 0.752106V2.61884" stroke="white" stroke-width="1.5" stroke-linecap="round" stroke-linejoin="round"/>
<path d="M1.07141 6.35233H18.5378" stroke="white" stroke-width="1.5" stroke-linecap="round" stroke-linejoin="round"/>
<path d="M16.2396 13.486L14.8607 14.8861" stroke="white" stroke-width="1.5" stroke-linecap="round" stroke-linejoin="round"/>
<path d="M14.8607 19.4195C17.3992 19.4195 19.4571 17.3301 19.4571 14.7527C19.4571 12.1752 17.3992 10.0858 14.8607 10.0858C12.3222 10.0858 10.2643 12.1752 10.2643 14.7527C10.2643 17.3301 12.3222 19.4195 14.8607 19.4195Z" stroke="white" stroke-width="1.5" stroke-linecap="round" stroke-linejoin="round"/>
</svg>
