<svg width="18" height="20" viewBox="0 0 18 20" fill="none" xmlns="http://www.w3.org/2000/svg">
<path d="M17.2477 12.056L15.9035 10.8893C15.9671 10.4934 16 10.0892 16 9.68496C16 9.28075 15.9671 8.87654 15.9035 8.48066L17.2477 7.31387C17.349 7.22575 17.4216 7.10838 17.4557 6.97737C17.4898 6.84636 17.4838 6.70792 17.4385 6.58046L17.42 6.52628C17.05 5.47623 16.4959 4.50281 15.7845 3.65306L15.7476 3.6093C15.6613 3.50628 15.5462 3.43221 15.4177 3.39688C15.2891 3.36155 15.153 3.3666 15.0273 3.41137L13.3589 4.01351C12.7433 3.50096 12.0558 3.09675 11.3129 2.81339L10.9907 1.04236C10.9664 0.909102 10.9028 0.786506 10.8082 0.690861C10.7136 0.595216 10.5926 0.53105 10.4613 0.506887L10.4059 0.49647C9.33673 0.300615 8.21217 0.300615 7.14302 0.49647L7.08761 0.506887C6.95627 0.53105 6.83528 0.595216 6.74071 0.690861C6.64614 0.786506 6.58247 0.909102 6.55816 1.04236L6.23393 2.82172C5.49699 3.10514 4.81072 3.50914 4.20233 4.01768L2.52165 3.41137C2.39599 3.36624 2.25978 3.36101 2.13112 3.39636C2.00246 3.43172 1.88744 3.50599 1.80135 3.6093L1.76441 3.65306C1.05386 4.50341 0.499848 5.47666 0.128875 6.52628L0.110406 6.58046C0.0180602 6.8409 0.0939886 7.1326 0.301253 7.31387L1.66181 8.49316C1.59819 8.88487 1.56741 9.28491 1.56741 9.68287C1.56741 10.0829 1.59819 10.483 1.66181 10.8726L0.301253 12.0519C0.199869 12.14 0.127308 12.2574 0.093217 12.3884C0.0591262 12.5194 0.0651214 12.6578 0.110406 12.7853L0.128875 12.8395C0.500308 13.8896 1.05028 14.8584 1.76441 15.7127L1.80135 15.7564C1.88765 15.8595 2.00267 15.9335 2.13126 15.9689C2.25984 16.0042 2.39595 15.9991 2.52165 15.9544L4.20233 15.3481C4.81386 15.8585 5.49722 16.2627 6.23393 16.544L6.55816 18.3234C6.58247 18.4566 6.64614 18.5792 6.74071 18.6749C6.83528 18.7705 6.95627 18.8347 7.08761 18.8589L7.14302 18.8693C8.222 19.0662 9.32691 19.0662 10.4059 18.8693L10.4613 18.8589C10.5926 18.8347 10.7136 18.7705 10.8082 18.6749C10.9028 18.5792 10.9664 18.4566 10.9907 18.3234L11.3129 16.5524C12.0555 16.2697 12.7468 15.8642 13.3589 15.3522L15.0273 15.9544C15.1529 15.9995 15.2891 16.0047 15.4178 15.9694C15.5464 15.934 15.6615 15.8598 15.7476 15.7564L15.7845 15.7127C16.4986 14.8563 17.0486 13.8896 17.42 12.8395L17.4385 12.7853C17.5308 12.529 17.4549 12.2373 17.2477 12.056ZM14.4465 8.72652C14.4978 9.04114 14.5245 9.36409 14.5245 9.68704C14.5245 10.01 14.4978 10.3329 14.4465 10.6476L14.3111 11.4831L15.844 12.8145C15.6116 13.358 15.3183 13.8726 14.9698 14.348L13.0654 13.6625L12.4211 14.2C11.9306 14.6084 11.3847 14.9293 10.7937 15.1543L10.0119 15.4522L9.64455 17.4733C9.06497 17.54 8.47983 17.54 7.90025 17.4733L7.53292 15.4481L6.75722 15.146C6.17237 14.9209 5.62855 14.6001 5.1422 14.1938L4.49784 13.6541L2.58116 14.3459C2.2323 13.8687 1.9409 13.3541 1.70695 12.8124L3.2563 11.4685L3.12292 10.6351C3.07367 10.3246 3.04699 10.0037 3.04699 9.68704C3.04699 9.36825 3.07161 9.04947 3.12292 8.73902L3.2563 7.9056L1.70695 6.5617C1.93884 6.0179 2.2323 5.50534 2.58116 5.02821L4.49784 5.71995L5.1422 5.18031C5.62855 4.77401 6.17237 4.45314 6.75722 4.22812L7.53497 3.93017L7.9023 1.90495C8.47895 1.83828 9.06791 1.83828 9.6466 1.90495L10.0139 3.926L10.7958 4.22395C11.3847 4.44898 11.9327 4.76985 12.4231 5.17822L13.0675 5.71578L14.9719 5.03029C15.3207 5.50742 15.6121 6.02206 15.8461 6.56379L14.3131 7.89518L14.4465 8.72652ZM8.77651 5.81162C6.78185 5.81162 5.16478 7.45347 5.16478 9.47868C5.16478 11.5039 6.78185 13.1457 8.77651 13.1457C10.7712 13.1457 12.3882 11.5039 12.3882 9.47868C12.3882 7.45347 10.7712 5.81162 8.77651 5.81162ZM10.4018 11.1289C10.1886 11.3459 9.93528 11.518 9.65635 11.6353C9.37742 11.7526 9.07841 11.8127 8.77651 11.8123C8.16292 11.8123 7.58628 11.5685 7.15123 11.1289C6.93744 10.9124 6.76792 10.6552 6.6524 10.372C6.53689 10.0888 6.47766 9.78521 6.47813 9.47868C6.47813 8.8557 6.71823 8.27022 7.15123 7.82851C7.58628 7.38679 8.16292 7.1451 8.77651 7.1451C9.39009 7.1451 9.96673 7.38679 10.4018 7.82851C10.6156 8.04494 10.7851 8.30216 10.9006 8.58536C11.0161 8.86856 11.0753 9.17216 11.0749 9.47868C11.0749 10.1017 10.8348 10.6871 10.4018 11.1289Z" fill="white"/>
</svg>
