<svg width="22" height="26" viewBox="0 0 22 26" fill="none" xmlns="http://www.w3.org/2000/svg">
<path d="M5.35748 7.18782C5.61091 7.44362 5.95337 7.58715 6.31028 7.58715C6.66719 7.58715 7.00965 7.44362 7.26308 7.18782C7.38788 7.06191 7.48694 6.9121 7.55454 6.74701C7.62214 6.58193 7.65695 6.40485 7.65695 6.226C7.65695 6.04715 7.62214 5.87007 7.55454 5.70499C7.48694 5.53991 7.38788 5.39009 7.26308 5.26419C7.00965 5.00839 6.66719 4.86486 6.31028 4.86486C5.95337 4.86486 5.61091 5.00839 5.35748 5.26419C4.833 5.79626 4.833 6.65753 5.35748 7.18782ZM20.7789 15.1955C21.1056 14.8659 21.365 14.4737 21.542 14.0416C21.719 13.6094 21.8102 13.1458 21.8102 12.6775C21.8102 12.2093 21.719 11.7457 21.542 11.3135C21.365 10.8813 21.1056 10.4891 20.7789 10.1596L12.4572 1.74258C11.799 1.07795 10.9105 0.703404 9.98337 0.699805L4.27705 0.674892C3.81304 0.671593 3.353 0.762009 2.92355 0.940905C2.4941 1.1198 2.10378 1.38362 1.77518 1.7171C1.44658 2.05058 1.18623 2.44709 1.0092 2.88367C0.832163 3.32026 0.741962 3.78825 0.743824 4.26056L0.785784 10.2628C0.793346 11.1992 1.16408 12.0946 1.81726 12.7541L10.0166 21.0465C10.6785 21.7139 11.5726 22.0883 12.5044 22.0883C13.4361 22.0883 14.3302 21.7139 14.9921 21.0465L20.7789 15.1955ZM19.5341 11.4177C19.6975 11.5824 19.8272 11.7785 19.9157 11.9946C20.0042 12.2107 20.0498 12.4425 20.0498 12.6766C20.0498 12.9108 20.0042 13.1426 19.9157 13.3587C19.8272 13.5747 19.6975 13.7708 19.5341 13.9356L13.7474 19.7901C13.0603 20.4841 11.9467 20.4841 11.2596 19.7901L3.06027 11.496C2.73424 11.166 2.5495 10.7183 2.54628 10.2503L2.50257 4.2481C2.50141 4.01177 2.54637 3.77755 2.63485 3.55904C2.72332 3.34053 2.85356 3.14208 3.01798 2.97521C3.18241 2.80834 3.37776 2.67638 3.5927 2.58697C3.80763 2.49756 4.03788 2.45249 4.27006 2.45438L9.97637 2.47929C10.4402 2.48086 10.8849 2.66815 11.2141 3.00068L19.5358 11.4177H19.5341ZM21.7194 16.2454C21.9543 16.8852 22.0033 17.5802 21.8607 18.2475C21.7181 18.9149 21.3899 19.5264 20.9152 20.009L17.4816 23.5039C16.8323 24.1649 16.0614 24.6893 15.2129 25.047C14.3644 25.4047 13.4551 25.5889 12.5367 25.5889C11.6183 25.5889 10.709 25.4047 9.8605 25.047C9.01204 24.6893 8.24112 24.1649 7.59175 23.5039L1.50432 17.3078C1.01238 16.8077 0.735695 16.1292 0.735083 15.4215V14.0335L7.59175 21.0127C7.71238 21.1354 7.83651 21.2529 7.96238 21.3632L8.82777 22.2458C9.3148 22.7417 9.89302 23.135 10.5294 23.4033C11.1658 23.6716 11.8479 23.8098 12.5367 23.8098C13.2255 23.8098 13.9076 23.6716 14.544 23.4033C15.1804 23.135 15.7586 22.7417 16.2456 22.2458L17.118 21.3579C17.2431 21.2471 17.3644 21.132 17.4816 21.0127L20.9152 17.5177C21.2701 17.1574 21.5444 16.7235 21.7194 16.2454Z" fill="black"/>
</svg>
