<svg width="19" height="22" viewBox="0 0 19 22" fill="none" xmlns="http://www.w3.org/2000/svg">
<path d="M4.07917 6.0121C4.2989 6.23333 4.59582 6.35746 4.90527 6.35746C5.21472 6.35746 5.51164 6.23333 5.73137 6.0121C5.83957 5.90321 5.92546 5.77364 5.98408 5.63087C6.04269 5.4881 6.07287 5.33495 6.07287 5.18027C6.07287 5.02559 6.04269 4.87244 5.98408 4.72967C5.92546 4.58689 5.83957 4.45732 5.73137 4.34844C5.51164 4.1272 5.21472 4.00307 4.90527 4.00307C4.59582 4.00307 4.2989 4.1272 4.07917 4.34844C3.62443 4.8086 3.62443 5.55348 4.07917 6.0121ZM17.4499 12.9376C17.7332 12.6526 17.9581 12.3134 18.1116 11.9396C18.265 11.5658 18.3441 11.1649 18.3441 10.7599C18.3441 10.355 18.265 9.95402 18.1116 9.58024C17.9581 9.20647 17.7332 8.86727 17.4499 8.58224L10.2348 1.30275C9.66413 0.727934 8.89375 0.404006 8.08993 0.400894L3.14241 0.379348C2.7401 0.376495 2.34123 0.454692 1.96889 0.609411C1.59655 0.764131 1.25813 0.9923 0.973227 1.28071C0.688322 1.56912 0.462591 1.91204 0.309101 2.28963C0.155609 2.66721 0.077404 3.07196 0.0790176 3.48044L0.115396 8.6715C0.121954 9.48135 0.443394 10.2558 1.00971 10.8261L8.11873 17.9979C8.69266 18.5751 9.46784 18.8989 10.2757 18.8989C11.0835 18.8989 11.8587 18.5751 12.4326 17.9979L17.4499 12.9376ZM16.3706 9.67031C16.5123 9.81283 16.6248 9.98243 16.7015 10.1693C16.7782 10.3562 16.8177 10.5567 16.8177 10.7592C16.8177 10.9616 16.7782 11.1621 16.7015 11.349C16.6248 11.5359 16.5123 11.7055 16.3706 11.848L11.3534 16.9113C10.7577 17.5115 9.79215 17.5115 9.19645 16.9113L2.08743 9.73803C1.80476 9.45265 1.64458 9.06545 1.64179 8.66072L1.6039 3.46967C1.60289 3.26527 1.64187 3.0627 1.71858 2.87372C1.79529 2.68474 1.90821 2.51312 2.05077 2.3688C2.19333 2.22448 2.36271 2.11035 2.54906 2.03302C2.73542 1.9557 2.93504 1.91672 3.13635 1.91835L8.08387 1.9399C8.48604 1.94125 8.87154 2.10323 9.15704 2.39083L16.3722 9.67031H16.3706ZM18.2654 13.8456C18.469 14.3989 18.5115 15 18.3879 15.5772C18.2643 16.1543 17.9797 16.6832 17.5681 17.1006L14.5911 20.1232C14.0281 20.6949 13.3597 21.1484 12.6241 21.4578C11.8884 21.7671 11.1 21.9264 10.3037 21.9264C9.50748 21.9264 8.71903 21.7671 7.9834 21.4578C7.24776 21.1484 6.57935 20.6949 6.01634 20.1232L0.738384 14.7644C0.311867 14.3319 0.07197 13.7451 0.0714378 13.1331V11.9326L6.01634 17.9686C6.12093 18.0748 6.22855 18.1764 6.33768 18.2718L7.088 19.0351C7.51027 19.464 8.0116 19.8041 8.56336 20.0362C9.11512 20.2683 9.7065 20.3877 10.3037 20.3877C10.901 20.3877 11.4923 20.2683 12.0441 20.0362C12.5959 19.8041 13.0972 19.464 13.5195 19.0351L14.2758 18.2672C14.3843 18.1714 14.4895 18.0718 14.5911 17.9686L17.5681 14.946C17.8758 14.6344 18.1136 14.2591 18.2654 13.8456Z" fill="white"/>
</svg>
