<svg width="19" height="19" viewBox="0 0 19 19" fill="none" xmlns="http://www.w3.org/2000/svg">
<path d="M9.26424 4.05099C8.6149 4.05099 7.98013 4.2465 7.44022 4.61278C6.9003 4.97907 6.47949 5.49968 6.231 6.10879C5.9825 6.7179 5.91748 7.38815 6.04417 8.03478C6.17085 8.68141 6.48354 9.27537 6.9427 9.74157C7.40186 10.2078 7.98686 10.5252 8.62373 10.6539C9.2606 10.7825 9.92074 10.7165 10.5207 10.4642C11.1206 10.2119 11.6333 9.78461 11.9941 9.23642C12.3549 8.68824 12.5474 8.04375 12.5474 7.38445C12.5474 6.50037 12.2015 5.65249 11.5858 5.02734C10.9701 4.4022 10.135 4.05099 9.26424 4.05099ZM9.26424 9.38453C8.87463 9.38453 8.49377 9.26723 8.16983 9.04746C7.84588 8.82768 7.59339 8.51532 7.4443 8.14985C7.2952 7.78438 7.25619 7.38224 7.3322 6.99426C7.40821 6.60628 7.59582 6.2499 7.87132 5.97019C8.14681 5.69047 8.49781 5.49998 8.87994 5.42281C9.26206 5.34564 9.65814 5.38524 10.0181 5.53662C10.378 5.68801 10.6857 5.94436 10.9022 6.27327C11.1186 6.60218 11.2341 6.98888 11.2341 7.38445C11.2336 7.91474 11.0259 8.42316 10.6566 8.79814C10.2873 9.17311 9.78653 9.384 9.26424 9.38453Z" fill="white"/>
<path d="M9.26427 0.0508423C7.4461 0.0508423 5.66875 0.598253 4.15699 1.62385C2.64524 2.64945 1.46696 4.10717 0.77118 5.81268C0.0753942 7.51819 -0.106655 9.39488 0.248053 11.2054C0.602762 13.016 1.4783 14.6791 2.76394 15.9844C4.04958 17.2898 5.68759 18.1787 7.47083 18.5389C9.25407 18.899 11.1024 18.7142 12.7822 18.0077C14.462 17.3013 15.8977 16.105 16.9079 14.57C17.918 13.0351 18.4571 11.2306 18.4571 9.38453C18.4543 6.90995 17.4849 4.53753 15.7615 2.78773C14.0381 1.03794 11.7015 0.0536655 9.26427 0.0508423ZM5.32448 16.3028V15.3848C5.325 14.8545 5.53271 14.346 5.90202 13.9711C6.27134 13.5961 6.77208 13.3852 7.29437 13.3847H11.2342C11.7565 13.3852 12.2572 13.5961 12.6265 13.9711C12.9958 14.346 13.2035 14.8545 13.2041 15.3848V16.3028C12.0084 17.0116 10.6488 17.3852 9.26427 17.3852C7.87975 17.3852 6.52009 17.0116 5.32448 16.3028ZM14.5121 15.3354C14.499 14.4609 14.1481 13.6267 13.5349 13.0124C12.9218 12.3981 12.0955 12.0529 11.2342 12.0513H7.29437C6.43299 12.0529 5.60672 12.3981 4.99359 13.0124C4.38046 13.6267 4.02955 14.4609 4.01646 15.3354C2.8257 14.2559 1.98598 12.8346 1.60848 11.2597C1.23099 9.68484 1.33353 8.0307 1.90253 6.51632C2.47152 5.00195 3.48014 3.69876 4.79482 2.77932C6.10949 1.85989 7.66822 1.36758 9.2646 1.36758C10.861 1.36758 12.4197 1.85989 13.7344 2.77932C15.0491 3.69876 16.0577 5.00195 16.6267 6.51632C17.1957 8.0307 17.2982 9.68484 16.9207 11.2597C16.5432 12.8346 15.7035 14.2559 14.5127 15.3354H14.5121Z" fill="white"/>
</svg>
