<svg width="39" height="26" viewBox="0 0 39 26" fill="none" xmlns="http://www.w3.org/2000/svg">
<path d="M18.3691 18.0752C20.0375 16.9471 21.3049 15.3023 21.9835 13.3841C22.6621 11.4659 22.716 9.37625 22.1372 7.42446C21.5583 5.47266 20.3775 3.76241 18.7695 2.54679C17.1615 1.33118 15.2117 0.674805 13.2087 0.674805C11.2057 0.674805 9.25594 1.33118 7.64792 2.54679C6.03991 3.76241 4.85911 5.47266 4.28028 7.42446C3.70144 9.37625 3.75533 11.4659 4.43396 13.3841C5.11259 15.3023 6.37991 16.9471 8.04837 18.0752C5.2042 19.1431 2.74602 21.0656 0.999653 23.5878C0.904378 23.7236 0.836444 23.8773 0.799761 24.04C0.763078 24.2027 0.758371 24.3712 0.78591 24.5357C0.813449 24.7002 0.872691 24.8576 0.960226 24.9988C1.04776 25.1399 1.16186 25.262 1.29595 25.3581C1.43004 25.4542 1.58148 25.5224 1.74155 25.5586C1.90162 25.5949 2.06716 25.5986 2.22863 25.5695C2.39011 25.5404 2.54433 25.479 2.68242 25.389C2.82052 25.299 2.93975 25.1821 3.03327 25.0449C4.18089 23.3832 5.70449 22.0269 7.47543 21.0906C9.24638 20.1543 11.2127 19.6655 13.2083 19.6654C15.2038 19.6653 17.1702 20.154 18.9412 21.0902C20.7122 22.0264 22.2358 23.3826 23.3836 25.0443C23.4775 25.1804 23.5969 25.2963 23.7349 25.3855C23.8728 25.4746 24.0267 25.5352 24.1877 25.5637C24.3487 25.5922 24.5137 25.5882 24.6731 25.5518C24.8326 25.5154 24.9834 25.4474 25.1171 25.3516C25.2507 25.2559 25.3644 25.1342 25.4518 24.9937C25.5392 24.8531 25.5986 24.6964 25.6264 24.5325C25.6543 24.3686 25.6501 24.2007 25.6142 24.0384C25.5783 23.8762 25.5113 23.7227 25.417 23.5868C23.6707 21.065 21.2129 19.1429 18.3691 18.075V18.0752ZM6.36931 10.1726C6.36931 8.79576 6.77043 7.44982 7.52195 6.30501C8.27346 5.16019 9.34162 4.26792 10.5913 3.74102C11.8411 3.21412 13.2162 3.07626 14.5429 3.34487C15.8696 3.61348 17.0883 4.2765 18.0448 5.25008C19.0013 6.22367 19.6527 7.46409 19.9166 8.81449C20.1805 10.1649 20.045 11.5646 19.5274 12.8367C19.0097 14.1087 18.1331 15.196 17.0084 15.9609C15.8837 16.7258 14.5613 17.1341 13.2086 17.1341C11.3954 17.132 9.65696 16.3979 8.37478 15.0928C7.0926 13.7878 6.37137 12.0183 6.36931 10.1726ZM37.788 25.3506C37.6545 25.4463 37.5037 25.5143 37.3444 25.5508C37.1851 25.5872 37.0202 25.5913 36.8593 25.5629C36.6984 25.5344 36.5446 25.474 36.4067 25.3851C36.2687 25.2961 36.1493 25.1804 36.0553 25.0445C34.9062 23.3843 33.3823 22.0292 31.6117 21.0932C29.8411 20.1572 27.8756 19.6676 25.8804 19.6656C25.5506 19.6656 25.2343 19.5322 25.0011 19.2949C24.7679 19.0575 24.6369 18.7355 24.6369 18.3999C24.6369 18.0642 24.7679 17.7422 25.0011 17.5049C25.2343 17.2675 25.5506 17.1341 25.8804 17.1341C26.857 17.133 27.8221 16.919 28.7107 16.5065C29.5993 16.094 30.3908 15.4925 31.032 14.7426C31.6731 13.9927 32.1491 13.1118 32.4277 12.159C32.7064 11.2062 32.7814 10.2037 32.6476 9.21899C32.5138 8.23426 32.1743 7.29011 31.6521 6.45007C31.1298 5.61003 30.4369 4.89358 29.6199 4.34893C28.8028 3.80428 27.8807 3.44405 26.9154 3.29249C25.9502 3.14093 24.9643 3.20155 24.024 3.47026C23.7069 3.55976 23.368 3.51772 23.0813 3.35336C22.7947 3.189 22.5837 2.91571 22.4946 2.59335C22.4055 2.27098 22.4455 1.92581 22.606 1.63343C22.7664 1.34106 23.0341 1.1253 23.3505 1.03342C25.4896 0.419093 27.774 0.602724 29.7919 1.55121C31.8098 2.4997 33.4285 4.15067 34.3562 6.20654C35.2839 8.26242 35.4597 10.588 34.8518 12.7641C34.2439 14.9402 32.8923 16.8237 31.0407 18.0752C33.8845 19.143 36.3424 21.0652 38.0888 23.587C38.2786 23.8614 38.3536 24.2015 38.2972 24.5322C38.2408 24.8629 38.0576 25.1573 37.788 25.3506Z" fill="black"/>
</svg>
