<svg width="28" height="26" viewBox="0 0 28 26" fill="none" xmlns="http://www.w3.org/2000/svg">
<path d="M13.9523 13.1318C13.2262 13.1318 12.5163 13.351 11.9125 13.7617C11.3087 14.1723 10.8382 14.7559 10.5603 15.4388C10.2824 16.1217 10.2097 16.8731 10.3513 17.598C10.493 18.3229 10.8427 18.9888 11.3562 19.5115C11.8696 20.0341 12.5238 20.3901 13.236 20.5342C13.9482 20.6784 14.6865 20.6044 15.3573 20.3216C16.0282 20.0387 16.6016 19.5597 17.0051 18.9452C17.4085 18.3306 17.6238 17.6081 17.6238 16.8689C17.6238 15.8778 17.237 14.9273 16.5485 14.2264C15.8599 13.5256 14.9261 13.1318 13.9523 13.1318ZM13.9523 18.1146C13.7103 18.1146 13.4736 18.0416 13.2724 17.9047C13.0711 17.7678 12.9143 17.5733 12.8216 17.3457C12.729 17.118 12.7048 16.8676 12.752 16.6259C12.7992 16.3843 12.9158 16.1623 13.0869 15.9881C13.2581 15.8139 13.4762 15.6952 13.7136 15.6472C13.951 15.5991 14.197 15.6238 14.4207 15.7181C14.6443 15.8123 14.8354 15.972 14.9699 16.1769C15.1044 16.3817 15.1762 16.6226 15.1762 16.8689C15.1762 17.1993 15.0472 17.5162 14.8177 17.7498C14.5882 17.9834 14.2769 18.1146 13.9523 18.1146ZM13.0834 10.2792C13.1998 10.3926 13.337 10.4815 13.4873 10.5408C13.6338 10.6067 13.7922 10.6407 13.9523 10.6407C14.1125 10.6407 14.2709 10.6067 14.4174 10.5408C14.5676 10.4815 14.7049 10.3926 14.8212 10.2792L17.6238 7.47634C17.8608 7.23517 17.9939 6.90806 17.9939 6.56698C17.9939 6.2259 17.8608 5.8988 17.6238 5.65762C17.3869 5.41644 17.0655 5.28095 16.7304 5.28095C16.3953 5.28095 16.074 5.41644 15.837 5.65762L15.1762 6.39258V1.92051C15.1762 1.59013 15.0472 1.27328 14.8177 1.03966C14.5882 0.806048 14.2769 0.674805 13.9523 0.674805C13.6277 0.674805 13.3164 0.806048 13.0869 1.03966C12.8574 1.27328 12.7285 1.59013 12.7285 1.92051V6.39258L12.0676 5.65762C11.8307 5.41644 11.5093 5.28095 11.1742 5.28095C10.8391 5.28095 10.5177 5.41644 10.2808 5.65762C10.0438 5.8988 9.91073 6.2259 9.91073 6.56698C9.91073 6.90806 10.0438 7.23517 10.2808 7.47634L13.0834 10.2792ZM22.5192 16.8689C22.5192 16.6226 22.4474 16.3817 22.313 16.1769C22.1785 15.972 21.9873 15.8123 21.7637 15.7181C21.5401 15.6238 21.294 15.5991 21.0566 15.6472C20.8192 15.6952 20.6011 15.8139 20.43 15.9881C20.2588 16.1623 20.1423 16.3843 20.095 16.6259C20.0478 16.8676 20.0721 17.118 20.1647 17.3457C20.2573 17.5733 20.4142 17.7678 20.6154 17.9047C20.8167 18.0416 21.0533 18.1146 21.2954 18.1146C21.6199 18.1146 21.9312 17.9834 22.1607 17.7498C22.3903 17.5162 22.5192 17.1993 22.5192 16.8689ZM23.743 8.14902H20.0715C19.7469 8.14902 19.4356 8.28027 19.2061 8.51388C18.9766 8.7475 18.8477 9.06435 18.8477 9.39473C18.8477 9.72511 18.9766 10.042 19.2061 10.2756C19.4356 10.5092 19.7469 10.6404 20.0715 10.6404H23.743C24.0676 10.6404 24.3789 10.7717 24.6084 11.0053C24.8379 11.2389 24.9669 11.5558 24.9669 11.8861V21.8518C24.9669 22.1821 24.8379 22.499 24.6084 22.7326C24.3789 22.9662 24.0676 23.0975 23.743 23.0975H4.16159C3.83701 23.0975 3.52572 22.9662 3.2962 22.7326C3.06669 22.499 2.93775 22.1821 2.93775 21.8518V11.8861C2.93775 11.5558 3.06669 11.2389 3.2962 11.0053C3.52572 10.7717 3.83701 10.6404 4.16159 10.6404H7.83311C8.15769 10.6404 8.46898 10.5092 8.6985 10.2756C8.92801 10.042 9.05695 9.72511 9.05695 9.39473C9.05695 9.06435 8.92801 8.7475 8.6985 8.51388C8.46898 8.28027 8.15769 8.14902 7.83311 8.14902H4.16159C3.18784 8.14902 2.25397 8.54275 1.56543 9.2436C0.876887 9.94444 0.490067 10.895 0.490067 11.8861V21.8518C0.490067 22.8429 0.876887 23.7934 1.56543 24.4943C2.25397 25.1951 3.18784 25.5889 4.16159 25.5889H23.743C24.7168 25.5889 25.6507 25.1951 26.3392 24.4943C27.0277 23.7934 27.4146 22.8429 27.4146 21.8518V11.8861C27.4146 10.895 27.0277 9.94444 26.3392 9.2436C25.6507 8.54275 24.7168 8.14902 23.743 8.14902ZM5.38543 16.8689C5.38543 17.1153 5.45721 17.3562 5.59168 17.561C5.72616 17.7659 5.9173 17.9255 6.14093 18.0198C6.36456 18.1141 6.61063 18.1388 6.84803 18.0907C7.08543 18.0426 7.3035 17.924 7.47466 17.7498C7.64581 17.5756 7.76237 17.3536 7.8096 17.112C7.85682 16.8703 7.83258 16.6199 7.73995 16.3922C7.64732 16.1646 7.49046 15.9701 7.2892 15.8332C7.08794 15.6963 6.85132 15.6232 6.60927 15.6232C6.28469 15.6232 5.9734 15.7545 5.74389 15.9881C5.51437 16.2217 5.38543 16.5386 5.38543 16.8689Z" fill="black"/>
</svg>
