<svg width="25" height="26" viewBox="0 0 25 26" fill="none" xmlns="http://www.w3.org/2000/svg">
<path d="M23.7871 13.7894C24.2861 13.1182 24.5623 12.2959 24.5623 11.4404C24.5623 10.083 23.8168 8.79812 22.6169 8.08162C22.308 7.89719 21.9563 7.80013 21.5981 7.80047H14.4758L14.654 4.08498C14.6956 3.18709 14.3837 2.33455 13.7778 1.68457C13.4805 1.3642 13.1217 1.1093 12.7238 0.935623C12.3258 0.761947 11.8971 0.673187 11.4641 0.674827C9.91961 0.674827 8.55336 1.73294 8.14348 3.24755L5.59214 12.6497H1.75177C1.22606 12.6497 0.801331 13.082 0.801331 13.6171V24.6215C0.801331 25.1566 1.22606 25.5889 1.75177 25.5889H19.6111C19.8844 25.5889 20.1517 25.5345 20.3982 25.4256C21.812 24.8119 22.7238 23.4061 22.7238 21.8462C22.7238 21.4652 22.6704 21.0904 22.5634 20.7276C23.0624 20.0564 23.3386 19.2341 23.3386 18.3786C23.3386 17.9977 23.2852 17.6228 23.1783 17.26C23.6772 16.5889 23.9535 15.7666 23.9535 14.911C23.9475 14.5301 23.8941 14.1522 23.7871 13.7894ZM2.93982 23.4122V14.8263H5.34562V23.4122H2.93982ZM21.8417 12.7403L21.1912 13.3148L21.6041 14.0826C21.7401 14.3356 21.8106 14.6196 21.809 14.908C21.809 15.4068 21.5952 15.8814 21.2269 16.2079L20.5764 16.7823L20.9893 17.5502C21.1253 17.8032 21.1958 18.0872 21.1942 18.3756C21.1942 18.8744 20.9804 19.349 20.6121 19.6755L19.9616 20.2499L20.3745 21.0178C20.5105 21.2708 20.581 21.5548 20.5794 21.8431C20.5794 22.5203 20.1873 23.131 19.5814 23.4092H7.2465V14.7296L10.2018 3.83103C10.278 3.55169 10.4416 3.30524 10.6677 3.12903C10.8939 2.95283 11.1704 2.85646 11.4552 2.85454C11.6809 2.85454 11.9037 2.92105 12.0819 3.05709C12.3759 3.28081 12.5333 3.61941 12.5155 3.97916L12.2304 9.97716H21.5684C22.0971 10.3067 22.4238 10.863 22.4238 11.4404C22.4238 11.9392 22.21 12.4108 21.8417 12.7403Z" fill="black"/>
</svg>
