<svg width="19" height="22" viewBox="0 0 19 22" fill="none" xmlns="http://www.w3.org/2000/svg">
<path d="M16.7881 12.5029V8.78027C16.7881 5.44075 14.5597 2.62754 11.5409 1.7815C11.2421 1.01539 10.5118 0.475586 9.64902 0.475586C8.78622 0.475586 8.05599 1.01539 7.75717 1.7815C4.73836 2.62858 2.50995 5.44075 2.50995 8.78027V12.5029L0.769037 14.2749C0.674146 14.3711 0.598892 14.4855 0.547608 14.6114C0.496324 14.7374 0.470022 14.8724 0.470216 15.0088V17.085C0.470216 17.3603 0.577666 17.6243 0.768928 17.819C0.96019 18.0137 1.2196 18.123 1.49008 18.123H17.808C18.0785 18.123 18.3379 18.0137 18.5291 17.819C18.7204 17.6243 18.8278 17.3603 18.8278 17.085V15.0088C18.828 14.8724 18.8017 14.7374 18.7504 14.6114C18.6992 14.4855 18.6239 14.3711 18.529 14.2749L16.7881 12.5029ZM16.7881 16.0469H2.50995V15.4386L4.25086 13.6665C4.34576 13.5703 4.42101 13.4559 4.47229 13.33C4.52358 13.204 4.54988 13.069 4.54969 12.9326V8.78027C4.54969 5.91827 6.83725 3.58984 9.64902 3.58984C12.4608 3.58984 14.7484 5.91827 14.7484 8.78027V12.9326C14.7484 13.2087 14.8554 13.4724 15.0472 13.6665L16.7881 15.4386V16.0469ZM9.64902 21.2373C10.2806 21.2381 10.8968 21.0386 11.4119 20.6665C11.9269 20.2944 12.3153 19.7683 12.523 19.1611H6.77504C6.98275 19.7683 7.37113 20.2944 7.88619 20.6665C8.40126 21.0386 9.01742 21.2381 9.64902 21.2373Z" fill="black"/>
</svg>
